<svg width="649" height="174" viewBox="0 0 649 174" fill="none" xmlns="http://www.w3.org/2000/svg">
<g filter="url(#filter0_d_102_11)">
<path d="M166.013 15.482C167.563 12.878 169.857 11.576 172.895 11.576H195.215C198.129 11.576 198.811 12.878 197.261 15.482L162.2 71.84C160.898 74.01 161.177 75.932 163.037 77.606C163.719 78.226 164.463 78.536 165.269 78.536C166.261 78.536 167.098 77.978 167.78 76.862L206.003 15.482C207.553 12.878 209.847 11.576 212.885 11.576H235.205C238.119 11.576 238.801 12.878 237.251 15.482L205.073 67.283C203.275 69.949 201.043 71.747 198.377 72.677L166.757 84.023C165.703 84.333 164.804 84.488 164.06 84.488C162.262 84.488 160.65 83.868 159.224 82.628L140.066 65.33C137.772 63.346 137.493 61.083 139.229 58.541L166.013 15.482ZM241.646 74.909C240.096 77.327 240.747 78.536 243.599 78.536C246.451 78.536 248.652 77.327 250.202 74.909L253.829 69.05C255.379 66.446 257.673 65.144 260.711 65.144H282.473C285.387 65.144 286.069 66.446 284.519 69.05L280.613 75.281C279.125 77.637 277.141 79.528 274.661 80.954C272.181 82.318 269.577 83 266.849 83H214.769C212.041 83 210.305 82.318 209.561 80.954C208.817 79.528 209.189 77.637 210.677 75.281L231.602 41.615C233.028 39.259 234.981 37.399 237.461 36.035C240.003 34.609 242.638 33.896 245.366 33.896H288.518C293.912 33.896 297.353 35.322 298.841 38.174C300.391 40.964 299.678 44.684 296.702 49.334L292.145 56.774C290.595 59.378 288.301 60.68 285.263 60.68H254.945C251.907 60.68 249.613 61.982 248.063 64.586L241.646 74.909ZM270.569 41.987C272.119 39.569 271.468 38.36 268.616 38.36C265.764 38.36 263.563 39.569 262.013 41.987L255.503 52.496C253.953 54.976 254.635 56.216 257.549 56.216C260.401 56.216 262.602 54.976 264.152 52.496L270.569 41.987ZM311.84 41.615C313.266 39.259 315.219 37.399 317.699 36.035C320.241 34.609 322.876 33.896 325.604 33.896H382.241C385.155 33.896 385.837 35.198 384.287 37.802L377.963 47.939C376.351 50.481 374.057 51.752 371.081 51.752H349.319C346.405 51.752 345.723 50.45 347.273 47.846L350.9 42.08C352.45 39.6 351.768 38.36 348.854 38.36C346.002 38.36 343.801 39.6 342.251 42.08L335.927 52.31C334.377 54.914 335.059 56.216 337.973 56.216H363.734C366.462 56.216 368.167 56.929 368.849 58.355C369.593 59.719 369.252 61.579 367.826 63.935L360.851 75.281C359.363 77.637 357.379 79.528 354.899 80.954C352.419 82.318 349.815 83 347.087 83H290.543C287.629 83 286.947 81.698 288.497 79.094L294.821 68.957C296.433 66.415 298.727 65.144 301.703 65.144H323.465C326.379 65.144 327.061 66.446 325.511 69.05L321.884 74.909C320.334 77.327 320.985 78.536 323.837 78.536C326.689 78.536 328.89 77.296 330.44 74.816L336.764 64.586C338.314 61.982 337.632 60.68 334.718 60.68H308.957C306.229 60.68 304.493 59.998 303.749 58.634C303.005 57.208 303.377 55.317 304.865 52.961L311.84 41.615ZM441.182 75.281C439.694 77.637 437.71 79.528 435.23 80.954C432.75 82.318 430.146 83 427.418 83H401.564C398.526 83 396.232 84.302 394.682 86.906L388.358 97.043C386.746 99.585 384.452 100.856 381.476 100.856H359.714C356.8 100.856 356.118 99.554 357.668 96.95L394.496 37.802C396.046 35.198 398.34 33.896 401.378 33.896H453.551C457.581 33.896 460.154 34.95 461.27 37.058C462.386 39.166 461.859 41.987 459.689 45.521L441.182 75.281ZM402.122 74.909C400.572 77.327 401.254 78.536 404.168 78.536C406.958 78.536 409.128 77.327 410.678 74.909L431.138 41.987C432.688 39.569 432.037 38.36 429.185 38.36C426.333 38.36 424.132 39.569 422.582 41.987L402.122 74.909ZM458.549 63.935C459.975 61.579 461.928 59.719 464.408 58.355C466.95 56.929 469.585 56.216 472.313 56.216H498.167C501.081 56.216 503.375 54.914 505.049 52.31L511.466 42.08C513.016 39.6 512.303 38.36 509.327 38.36C506.537 38.36 504.367 39.6 502.817 42.08L499.283 47.753C497.733 50.357 495.439 51.659 492.401 51.659H470.639C467.725 51.659 467.043 50.357 468.593 47.753L469.988 45.521C472.096 41.987 475.041 39.166 478.823 37.058C482.605 34.95 486.511 33.896 490.541 33.896H529.415C534.809 33.896 538.25 35.322 539.738 38.174C541.288 40.964 540.575 44.684 537.599 49.334L519.092 79.094C517.418 81.698 515.124 83 512.21 83H459.944C455.914 83 453.341 81.946 452.225 79.838C451.109 77.73 451.636 74.94 453.806 71.468L458.549 63.935ZM482.45 74.816C480.9 77.296 481.582 78.536 484.496 78.536C487.348 78.536 489.549 77.296 491.099 74.816L497.609 64.4C499.159 61.92 498.477 60.68 495.563 60.68C492.649 60.68 490.417 61.92 488.867 64.4L482.45 74.816Z" fill="#FFA5B9"/>
<path d="M166.013 15.482L167.711 16.5384L167.721 16.5218L167.731 16.505L166.013 15.482ZM197.261 15.482L198.959 16.5385L198.969 16.5218L198.979 16.505L197.261 15.482ZM162.2 71.84L160.502 70.7835L160.493 70.7972L160.485 70.811L162.2 71.84ZM163.037 77.606L164.382 76.1261L164.375 76.1194L163.037 77.606ZM167.78 76.862L166.082 75.8048L166.078 75.8119L166.073 75.8191L167.78 76.862ZM206.003 15.482L207.7 16.5392L207.711 16.5222L207.721 16.505L206.003 15.482ZM237.251 15.482L238.95 16.5373L238.96 16.5212L238.969 16.505L237.251 15.482ZM205.073 67.283L206.731 68.4013L206.752 68.3702L206.772 68.3383L205.073 67.283ZM198.377 72.677L197.718 70.7886L197.71 70.7915L197.701 70.7945L198.377 72.677ZM166.757 84.023L167.321 85.9417L167.377 85.9252L167.432 85.9055L166.757 84.023ZM159.224 82.628L157.883 84.1124L157.897 84.125L157.911 84.1372L159.224 82.628ZM140.066 65.33L141.406 63.8456L141.39 63.8312L141.374 63.8173L140.066 65.33ZM139.229 58.541L140.88 59.6689L140.904 59.6336L140.927 59.5974L139.229 58.541ZM167.731 16.505C168.92 14.5087 170.56 13.576 172.895 13.576V9.576C169.154 9.576 166.206 11.2473 164.294 14.459L167.731 16.505ZM172.895 13.576H195.215V9.576H172.895V13.576ZM195.215 13.576C195.82 13.576 196.153 13.647 196.301 13.7007C196.426 13.7459 196.264 13.7178 196.14 13.4805C196.023 13.2579 196.095 13.1454 196.052 13.3393C196.007 13.5423 195.871 13.9067 195.542 14.459L198.979 16.505C199.426 15.7553 199.785 14.9805 199.957 14.207C200.131 13.4243 200.141 12.4981 199.683 11.6245C199.218 10.7362 198.437 10.2198 197.663 9.93959C196.912 9.66773 196.067 9.576 195.215 9.576V13.576ZM195.563 14.4255L160.502 70.7835L163.898 72.8965L198.959 16.5385L195.563 14.4255ZM160.485 70.811C159.669 72.1701 159.23 73.6566 159.453 75.1963C159.677 76.7394 160.524 78.0348 161.699 79.0926L164.375 76.1194C163.69 75.5032 163.467 75.0006 163.412 74.6217C163.356 74.2394 163.428 73.6799 163.915 72.869L160.485 70.811ZM161.691 79.0859C162.685 79.9891 163.894 80.536 165.269 80.536V76.536C165.032 76.536 164.753 76.4629 164.382 76.1261L161.691 79.0859ZM165.269 80.536C167.176 80.536 168.572 79.4013 169.486 77.9049L166.073 75.8191C165.624 76.5547 165.345 76.536 165.269 76.536V80.536ZM169.477 77.9192L207.7 16.5392L204.305 14.4248L166.082 75.8048L169.477 77.9192ZM207.721 16.505C208.91 14.5087 210.55 13.576 212.885 13.576V9.576C209.144 9.576 206.196 11.2473 204.284 14.459L207.721 16.505ZM212.885 13.576H235.205V9.576H212.885V13.576ZM235.205 13.576C235.81 13.576 236.143 13.647 236.291 13.7007C236.416 13.7459 236.254 13.7178 236.13 13.4805C236.013 13.2579 236.085 13.1454 236.042 13.3393C235.997 13.5423 235.861 13.9067 235.532 14.459L238.969 16.505C239.416 15.7553 239.775 14.9805 239.947 14.207C240.121 13.4243 240.131 12.4981 239.673 11.6245C239.208 10.7362 238.427 10.2198 237.653 9.93959C236.902 9.66773 236.057 9.576 235.205 9.576V13.576ZM235.552 14.4267L203.374 66.2277L206.772 68.3383L238.95 16.5373L235.552 14.4267ZM203.415 66.1647C201.823 68.5248 199.921 70.0201 197.718 70.7886L199.035 74.5654C202.164 73.4739 204.727 71.3732 206.731 68.4013L203.415 66.1647ZM197.701 70.7945L166.081 82.1405L167.432 85.9055L199.052 74.5595L197.701 70.7945ZM166.192 82.1043C165.243 82.3835 164.545 82.488 164.06 82.488V86.488C165.062 86.488 166.162 86.2825 167.321 85.9417L166.192 82.1043ZM164.06 82.488C162.77 82.488 161.618 82.0599 160.536 81.1188L157.911 84.1372C159.681 85.6761 161.753 86.488 164.06 86.488V82.488ZM160.564 81.1436L141.406 63.8456L138.725 66.8144L157.883 84.1124L160.564 81.1436ZM141.374 63.8173C140.476 63.0405 140.182 62.3961 140.121 61.9C140.059 61.3984 140.19 60.6801 140.88 59.6689L137.577 57.4131C136.532 58.9439 135.934 60.6281 136.151 62.3895C136.369 64.1564 137.362 65.6355 138.757 66.8427L141.374 63.8173ZM140.927 59.5974L167.711 16.5384L164.314 14.4256L137.53 57.4846L140.927 59.5974ZM241.646 74.909L243.329 75.9883L243.337 75.9767L243.344 75.9649L241.646 74.909ZM250.202 74.909L251.885 75.9883L251.894 75.9751L251.902 75.9617L250.202 74.909ZM253.829 69.05L255.529 70.1027L255.538 70.0879L255.547 70.073L253.829 69.05ZM284.519 69.05L286.213 70.1123L286.226 70.0928L286.237 70.073L284.519 69.05ZM280.613 75.281L282.304 76.349L282.307 76.3433L280.613 75.281ZM274.661 80.954L275.625 82.7064L275.641 82.6973L275.658 82.6878L274.661 80.954ZM209.561 80.954L207.788 81.8791L207.796 81.8955L207.805 81.9117L209.561 80.954ZM210.677 75.281L212.368 76.349L212.372 76.3429L212.375 76.3368L210.677 75.281ZM231.602 41.615L233.3 42.6708L233.307 42.6607L233.313 42.6506L231.602 41.615ZM237.461 36.035L238.425 37.7874L238.432 37.7834L238.439 37.7793L237.461 36.035ZM298.841 38.174L297.068 39.0991L297.08 39.1224L297.092 39.1453L298.841 38.174ZM296.702 49.334L295.017 48.2559L295.007 48.2725L294.996 48.2894L296.702 49.334ZM292.145 56.774L290.439 55.7294L290.433 55.7402L290.426 55.751L292.145 56.774ZM248.063 64.586L249.761 65.6419L249.771 65.6255L249.781 65.609L248.063 64.586ZM270.569 41.987L268.885 40.9077L268.873 40.9261L268.862 40.9447L270.569 41.987ZM262.013 41.987L260.329 40.9077L260.321 40.9207L260.313 40.9338L262.013 41.987ZM255.503 52.496L257.199 53.556L257.203 53.5492L255.503 52.496ZM264.152 52.496L265.848 53.556L265.853 53.5472L265.859 53.5383L264.152 52.496ZM239.962 73.8297C239.513 74.5303 239.14 75.2672 238.955 76.0146C238.766 76.7745 238.738 77.7008 239.211 78.5774C239.684 79.4571 240.476 79.9431 241.22 80.1999C241.949 80.4515 242.77 80.536 243.599 80.536V76.536C243.31 76.536 243.077 76.5206 242.893 76.4964C242.707 76.4719 242.589 76.441 242.525 76.4187C242.393 76.3733 242.584 76.4059 242.732 76.6811C242.879 76.9532 242.801 77.1239 242.837 76.977C242.855 76.9062 242.894 76.7868 242.976 76.6135C243.057 76.4417 243.172 76.2339 243.329 75.9883L239.962 73.8297ZM243.599 80.536C247.138 80.536 249.971 78.9751 251.885 75.9883L248.518 73.8297C247.333 75.6789 245.763 76.536 243.599 76.536V80.536ZM251.902 75.9617L255.529 70.1027L252.128 67.9973L248.501 73.8563L251.902 75.9617ZM255.547 70.073C256.736 68.0767 258.376 67.144 260.711 67.144V63.144C256.97 63.144 254.022 64.8153 252.11 68.027L255.547 70.073ZM260.711 67.144H282.473V63.144H260.711V67.144ZM282.473 67.144C283.078 67.144 283.411 67.215 283.559 67.2687C283.684 67.3139 283.522 67.2858 283.398 67.0485C283.281 66.8259 283.353 66.7134 283.31 66.9073C283.265 67.1103 283.129 67.4747 282.8 68.027L286.237 70.073C286.684 69.3233 287.043 68.5485 287.215 67.775C287.389 66.9923 287.399 66.0661 286.941 65.1925C286.476 64.3042 285.695 63.7878 284.921 63.5076C284.17 63.2357 283.325 63.144 282.473 63.144V67.144ZM282.824 67.9877L278.918 74.2187L282.307 76.3433L286.213 70.1123L282.824 67.9877ZM278.922 74.213C277.612 76.2864 275.87 77.9519 273.664 79.2202L275.658 82.6878C278.412 81.1041 280.637 78.9876 282.304 76.349L278.922 74.213ZM273.697 79.2016C271.501 80.4095 269.227 81 266.849 81V85C269.927 85 272.861 84.2265 275.625 82.7064L273.697 79.2016ZM266.849 81H214.769V85H266.849V81ZM214.769 81C212.206 81 211.504 80.3399 211.317 79.9963L207.805 81.9117C209.106 84.2961 211.875 85 214.769 85V81ZM211.334 80.0289C211.107 79.5948 210.976 78.552 212.368 76.349L208.986 74.213C207.401 76.722 206.526 79.4612 207.788 81.8791L211.334 80.0289ZM212.375 76.3368L233.3 42.6708L229.903 40.5592L208.978 74.2252L212.375 76.3368ZM233.313 42.6506C234.552 40.6036 236.243 38.9871 238.425 37.7874L236.497 34.2826C233.718 35.8109 231.504 37.9144 229.891 40.5794L233.313 42.6506ZM238.439 37.7793C240.703 36.5091 243.004 35.896 245.366 35.896V31.896C242.272 31.896 239.302 32.7089 236.482 34.2907L238.439 37.7793ZM245.366 35.896H288.518V31.896H245.366V35.896ZM288.518 35.896C293.698 35.896 296.115 37.274 297.068 39.0991L300.614 37.2489C298.59 33.37 294.125 31.896 288.518 31.896V35.896ZM297.092 39.1453C298.079 40.9213 297.896 43.7583 295.017 48.2559L298.386 50.4121C301.46 45.6097 302.702 41.0067 300.589 37.2027L297.092 39.1453ZM294.996 48.2894L290.439 55.7294L293.85 57.8186L298.407 50.3786L294.996 48.2894ZM290.426 55.751C289.238 57.7473 287.598 58.68 285.263 58.68V62.68C289.004 62.68 291.952 61.0087 293.863 57.797L290.426 55.751ZM285.263 58.68H254.945V62.68H285.263V58.68ZM254.945 58.68C251.204 58.68 248.256 60.3513 246.344 63.563L249.781 65.609C250.97 63.6127 252.61 62.68 254.945 62.68V58.68ZM246.364 63.5301L239.947 73.8531L243.344 75.9649L249.761 65.6419L246.364 63.5301ZM272.252 43.0663C272.702 42.3657 273.075 41.6288 273.26 40.8814C273.448 40.1215 273.476 39.1952 273.004 38.3185C272.53 37.4389 271.739 36.9529 270.995 36.6961C270.265 36.4445 269.444 36.36 268.616 36.36V40.36C268.904 40.36 269.137 40.3754 269.322 40.3996C269.508 40.4241 269.625 40.455 269.69 40.4773C269.821 40.5227 269.63 40.4901 269.482 40.2149C269.335 39.9428 269.414 39.7721 269.377 39.919C269.36 39.9898 269.32 40.1092 269.239 40.2825C269.157 40.4543 269.042 40.6621 268.885 40.9077L272.252 43.0663ZM268.616 36.36C265.076 36.36 262.244 37.9209 260.329 40.9077L263.696 43.0663C264.882 41.2171 266.451 40.36 268.616 40.36V36.36ZM260.313 40.9338L253.803 51.4428L257.203 53.5492L263.713 43.0402L260.313 40.9338ZM253.807 51.436C253.358 52.1543 252.989 52.9076 252.811 53.669C252.63 54.4446 252.618 55.3755 253.099 56.2498C253.581 57.1257 254.375 57.614 255.13 57.8742C255.87 58.1293 256.703 58.216 257.549 58.216V54.216C256.937 54.216 256.593 54.1477 256.434 54.0928C256.29 54.043 256.463 54.0663 256.604 54.3222C256.744 54.5765 256.67 54.7324 256.706 54.578C256.746 54.4094 256.873 54.0777 257.199 53.556L253.807 51.436ZM257.549 58.216C261.111 58.216 263.944 56.6027 265.848 53.556L262.456 51.436C261.26 53.3493 259.69 54.216 257.549 54.216V58.216ZM265.859 53.5383L272.276 43.0293L268.862 40.9447L262.445 51.4537L265.859 53.5383ZM311.84 41.615L313.543 42.6624L313.551 42.6506L311.84 41.615ZM317.699 36.035L318.662 37.7874L318.67 37.7834L318.677 37.7793L317.699 36.035ZM384.287 37.802L385.984 38.8606L385.995 38.8429L386.005 38.825L384.287 37.802ZM377.963 47.939L379.652 49.0101L379.656 49.0039L379.66 48.9976L377.963 47.939ZM347.273 47.846L345.58 46.7811L345.567 46.8019L345.554 46.823L347.273 47.846ZM350.9 42.08L352.593 43.1449L352.596 43.14L350.9 42.08ZM342.251 42.08L340.555 41.02L340.549 41.0284L342.251 42.08ZM335.927 52.31L334.225 51.2584L334.217 51.2726L334.208 51.287L335.927 52.31ZM368.849 58.355L367.044 59.2179L367.067 59.266L367.093 59.3127L368.849 58.355ZM367.826 63.935L369.529 64.9824L369.537 64.9706L367.826 63.935ZM360.851 75.281L362.542 76.349L362.548 76.3387L362.554 76.3284L360.851 75.281ZM354.899 80.954L355.862 82.7064L355.879 82.6973L355.896 82.6878L354.899 80.954ZM288.497 79.094L286.8 78.0354L286.789 78.0531L286.778 78.071L288.497 79.094ZM294.821 68.957L293.132 67.8859L293.128 67.8921L293.124 67.8984L294.821 68.957ZM325.511 69.05L327.211 70.1027L327.22 70.0879L327.229 70.073L325.511 69.05ZM321.884 74.909L323.567 75.9883L323.576 75.9751L323.584 75.9617L321.884 74.909ZM330.44 74.816L332.136 75.876L332.141 75.8676L330.44 74.816ZM336.764 64.586L338.465 65.6376L338.474 65.6234L338.482 65.609L336.764 64.586ZM303.749 58.634L301.975 59.5591L301.984 59.5755L301.993 59.5917L303.749 58.634ZM304.865 52.961L306.556 54.029L306.562 54.0187L306.568 54.0084L304.865 52.961ZM313.551 42.6506C314.79 40.6036 316.481 38.9871 318.662 37.7874L316.735 34.2826C313.956 35.8109 311.742 37.9144 310.129 40.5794L313.551 42.6506ZM318.677 37.7793C320.941 36.5091 323.242 35.896 325.604 35.896V31.896C322.51 31.896 319.54 32.7089 316.72 34.2907L318.677 37.7793ZM325.604 35.896H382.241V31.896H325.604V35.896ZM382.241 35.896C382.846 35.896 383.179 35.967 383.327 36.0207C383.452 36.0659 383.29 36.0378 383.166 35.8005C383.049 35.5779 383.121 35.4654 383.078 35.6593C383.033 35.8623 382.897 36.2267 382.568 36.779L386.005 38.825C386.451 38.0753 386.811 37.3005 386.983 36.527C387.157 35.7443 387.167 34.8181 386.709 33.9445C386.244 33.0562 385.462 32.5398 384.689 32.2596C383.938 31.9877 383.093 31.896 382.241 31.896V35.896ZM382.59 36.7434L376.266 46.8804L379.66 48.9976L385.984 38.8606L382.59 36.7434ZM376.274 46.8679C375.023 48.8395 373.362 49.752 371.081 49.752V53.752C374.751 53.752 377.678 52.1224 379.652 49.0101L376.274 46.8679ZM371.081 49.752H349.319V53.752H371.081V49.752ZM349.319 49.752C348.714 49.752 348.381 49.681 348.233 49.6273C348.107 49.582 348.269 49.6102 348.393 49.8475C348.51 50.0701 348.438 50.1826 348.481 49.9887C348.526 49.7857 348.662 49.4213 348.991 48.869L345.554 46.823C345.108 47.5727 344.748 48.3475 344.576 49.121C344.402 49.9037 344.392 50.8299 344.85 51.7035C345.315 52.5918 346.097 53.1082 346.871 53.3884C347.622 53.6603 348.467 53.752 349.319 53.752V49.752ZM348.966 48.9109L352.593 43.1449L349.207 41.0151L345.58 46.7811L348.966 48.9109ZM352.596 43.14C353.045 42.4217 353.414 41.6684 353.591 40.907C353.772 40.1314 353.784 39.2005 353.303 38.3262C352.821 37.4503 352.027 36.962 351.273 36.7018C350.533 36.4467 349.699 36.36 348.854 36.36V40.36C349.465 40.36 349.809 40.4283 349.969 40.4832C350.113 40.533 349.939 40.5097 349.798 40.2538C349.658 39.9995 349.732 39.8436 349.696 39.998C349.657 40.1666 349.53 40.4983 349.204 41.02L352.596 43.14ZM348.854 36.36C345.291 36.36 342.459 37.9733 340.555 41.02L343.947 43.14C345.142 41.2267 346.712 40.36 348.854 40.36V36.36ZM340.549 41.0284L334.225 51.2584L337.628 53.3616L343.952 43.1316L340.549 41.0284ZM334.208 51.287C333.762 52.0367 333.402 52.8115 333.23 53.585C333.056 54.3677 333.046 55.2939 333.504 56.1675C333.969 57.0558 334.751 57.5722 335.525 57.8524C336.276 58.1243 337.121 58.216 337.973 58.216V54.216C337.368 54.216 337.035 54.145 336.887 54.0913C336.761 54.046 336.923 54.0742 337.047 54.3115C337.164 54.5341 337.092 54.6466 337.135 54.4527C337.18 54.2497 337.316 53.8853 337.645 53.333L334.208 51.287ZM337.973 58.216H363.734V54.216H337.973V58.216ZM363.734 58.216C366.282 58.216 366.89 58.8951 367.044 59.2179L370.653 57.4921C369.443 54.9629 366.641 54.216 363.734 54.216V58.216ZM367.093 59.3127C367.295 59.6836 367.459 60.6786 366.115 62.8994L369.537 64.9706C371.044 62.4794 371.89 59.7544 370.604 57.3973L367.093 59.3127ZM366.122 62.8876L359.147 74.2336L362.554 76.3284L369.529 64.9824L366.122 62.8876ZM359.16 74.213C357.85 76.2864 356.107 77.9519 353.902 79.2202L355.896 82.6878C358.65 81.1041 360.875 78.9876 362.542 76.349L359.16 74.213ZM353.935 79.2016C351.739 80.4095 349.465 81 347.087 81V85C350.165 85 353.099 84.2265 355.862 82.7064L353.935 79.2016ZM347.087 81H290.543V85H347.087V81ZM290.543 81C289.938 81 289.605 80.929 289.457 80.8753C289.331 80.8301 289.493 80.8582 289.617 81.0955C289.734 81.3181 289.662 81.4306 289.705 81.2367C289.75 81.0337 289.886 80.6693 290.215 80.117L286.778 78.071C286.332 78.8207 285.972 79.5955 285.8 80.369C285.626 81.1517 285.616 82.0779 286.074 82.9515C286.539 83.8398 287.321 84.3562 288.095 84.6364C288.846 84.9083 289.691 85 290.543 85V81ZM290.194 80.1526L296.518 70.0156L293.124 67.8984L286.8 78.0354L290.194 80.1526ZM296.51 70.0281C297.76 68.0564 299.421 67.144 301.703 67.144V63.144C298.032 63.144 295.105 64.7736 293.132 67.8859L296.51 70.0281ZM301.703 67.144H323.465V63.144H301.703V67.144ZM323.465 67.144C324.07 67.144 324.403 67.215 324.551 67.2687C324.676 67.3139 324.514 67.2858 324.39 67.0485C324.273 66.8259 324.345 66.7134 324.302 66.9073C324.257 67.1103 324.121 67.4747 323.792 68.027L327.229 70.073C327.675 69.3233 328.035 68.5485 328.207 67.775C328.381 66.9923 328.391 66.0661 327.933 65.1925C327.468 64.3042 326.686 63.7878 325.913 63.5076C325.162 63.2357 324.317 63.144 323.465 63.144V67.144ZM323.81 67.9973L320.183 73.8563L323.584 75.9617L327.211 70.1027L323.81 67.9973ZM320.2 73.8297C319.751 74.5303 319.378 75.2672 319.193 76.0146C319.004 76.7745 318.976 77.7008 319.448 78.5774C319.922 79.4571 320.714 79.9431 321.458 80.1999C322.187 80.4515 323.008 80.536 323.837 80.536V76.536C323.548 76.536 323.315 76.5206 323.131 76.4964C322.945 76.4719 322.827 76.441 322.763 76.4187C322.631 76.3733 322.822 76.4059 322.97 76.6811C323.117 76.9532 323.039 77.1239 323.075 76.977C323.093 76.9062 323.132 76.7868 323.214 76.6135C323.295 76.4417 323.41 76.2339 323.567 75.9883L320.2 73.8297ZM323.837 80.536C327.399 80.536 330.231 78.9227 332.136 75.876L328.744 73.756C327.548 75.6693 325.978 76.536 323.837 76.536V80.536ZM332.141 75.8676L338.465 65.6376L335.062 63.5344L328.738 73.7644L332.141 75.8676ZM338.482 65.609C338.928 64.8593 339.288 64.0845 339.46 63.311C339.634 62.5283 339.644 61.6021 339.186 60.7285C338.721 59.8402 337.939 59.3238 337.166 59.0436C336.415 58.7717 335.57 58.68 334.718 58.68V62.68C335.323 62.68 335.656 62.751 335.804 62.8047C335.929 62.8499 335.767 62.8218 335.643 62.5845C335.526 62.3619 335.598 62.2494 335.555 62.4433C335.51 62.6463 335.374 63.0107 335.045 63.563L338.482 65.609ZM334.718 58.68H308.957V62.68H334.718V58.68ZM308.957 58.68C306.394 58.68 305.692 58.0199 305.504 57.6763L301.993 59.5917C303.293 61.9761 306.063 62.68 308.957 62.68V58.68ZM305.522 57.7089C305.295 57.2748 305.164 56.232 306.556 54.029L303.174 51.893C301.589 54.402 300.714 57.1412 301.975 59.5591L305.522 57.7089ZM306.568 54.0084L313.543 42.6624L310.136 40.5676L303.161 51.9136L306.568 54.0084ZM441.182 75.281L442.873 76.349L442.88 76.3372L441.182 75.281ZM435.23 80.954L436.193 82.7064L436.21 82.6973L436.227 82.6878L435.23 80.954ZM394.682 86.906L396.378 87.9646L396.389 87.9469L396.4 87.929L394.682 86.906ZM388.358 97.043L390.047 98.1141L390.051 98.1079L390.054 98.1016L388.358 97.043ZM357.668 96.95L355.97 95.8929L355.959 95.9099L355.949 95.927L357.668 96.95ZM394.496 37.802L396.193 38.8591L396.204 38.8421L396.214 38.825L394.496 37.802ZM461.27 37.058L463.037 36.1222L463.037 36.1222L461.27 37.058ZM459.689 45.521L461.387 46.5772L461.393 46.5675L459.689 45.521ZM402.122 74.909L403.805 75.9883L403.813 75.9766L403.82 75.9647L402.122 74.909ZM410.678 74.909L412.361 75.9883L412.369 75.9766L412.376 75.9647L410.678 74.909ZM431.138 41.987L429.454 40.9077L429.446 40.9194L429.439 40.9313L431.138 41.987ZM422.582 41.987L420.898 40.9077L420.89 40.9194L420.883 40.9313L422.582 41.987ZM439.491 74.213C438.181 76.2864 436.438 77.9519 434.233 79.2202L436.227 82.6878C438.981 81.1041 441.206 78.9876 442.873 76.349L439.491 74.213ZM434.266 79.2016C432.07 80.4095 429.796 81 427.418 81V85C430.495 85 433.43 84.2265 436.193 82.7064L434.266 79.2016ZM427.418 81H401.564V85H427.418V81ZM401.564 81C397.823 81 394.875 82.6713 392.963 85.883L396.4 87.929C397.588 85.9327 399.228 85 401.564 85V81ZM392.985 85.8474L386.661 95.9844L390.054 98.1016L396.378 87.9646L392.985 85.8474ZM386.669 95.9719C385.418 97.9436 383.757 98.856 381.476 98.856V102.856C385.146 102.856 388.073 101.226 390.047 98.1141L386.669 95.9719ZM381.476 98.856H359.714V102.856H381.476V98.856ZM359.714 98.856C359.108 98.856 358.776 98.785 358.627 98.7313C358.502 98.6861 358.664 98.7142 358.788 98.9515C358.905 99.1741 358.833 99.2866 358.876 99.0927C358.921 98.8897 359.057 98.5253 359.386 97.973L355.949 95.927C355.503 96.6767 355.143 97.4515 354.971 98.225C354.797 99.0077 354.787 99.9339 355.245 100.808C355.71 101.696 356.492 102.212 357.266 102.492C358.017 102.764 358.862 102.856 359.714 102.856V98.856ZM359.365 98.0071L396.193 38.8591L392.798 36.7449L355.97 95.8929L359.365 98.0071ZM396.214 38.825C397.402 36.8287 399.042 35.896 401.378 35.896V31.896C397.637 31.896 394.689 33.5673 392.777 36.779L396.214 38.825ZM401.378 35.896H453.551V31.896H401.378V35.896ZM453.551 35.896C457.375 35.896 458.926 36.9067 459.502 37.9938L463.037 36.1222C461.381 32.9933 457.786 31.896 453.551 31.896V35.896ZM459.502 37.9938C460.098 39.1187 460.061 41.0918 457.984 44.4745L461.393 46.5675C463.656 42.8822 464.674 39.2133 463.037 36.1222L459.502 37.9938ZM457.99 44.4648L439.483 74.2248L442.88 76.3372L461.387 46.5772L457.99 44.4648ZM400.438 73.8297C399.988 74.5321 399.613 75.2746 399.432 76.0303C399.248 76.8029 399.235 77.737 399.729 78.6119C400.219 79.4807 401.018 79.9546 401.763 80.205C402.497 80.4518 403.326 80.536 404.168 80.536V76.536C403.552 76.536 403.203 76.469 403.038 76.4136C402.884 76.3617 403.063 76.3823 403.213 76.6466C403.365 76.917 403.291 77.0954 403.323 76.9613C403.339 76.8949 403.376 76.779 403.456 76.6081C403.535 76.4387 403.649 76.2327 403.805 75.9883L400.438 73.8297ZM404.168 80.536C407.663 80.536 410.457 78.9596 412.361 75.9883L408.994 73.8297C407.798 75.6944 406.252 76.536 404.168 76.536V80.536ZM412.376 75.9647L432.836 43.0427L429.439 40.9313L408.979 73.8533L412.376 75.9647ZM432.821 43.0663C433.27 42.3657 433.643 41.6288 433.829 40.8814C434.017 40.1215 434.045 39.1952 433.573 38.3185C433.099 37.4389 432.307 36.9529 431.563 36.6961C430.834 36.4445 430.013 36.36 429.185 36.36V40.36C429.473 40.36 429.706 40.3754 429.891 40.3996C430.077 40.4241 430.194 40.455 430.258 40.4773C430.39 40.5227 430.199 40.4901 430.051 40.2149C429.904 39.9428 429.983 39.7721 429.946 39.919C429.929 39.9898 429.889 40.1092 429.807 40.2825C429.726 40.4543 429.611 40.6621 429.454 40.9077L432.821 43.0663ZM429.185 36.36C425.645 36.36 422.812 37.9209 420.898 40.9077L424.265 43.0663C425.451 41.2171 427.02 40.36 429.185 40.36V36.36ZM420.883 40.9313L400.423 73.8533L403.82 75.9647L424.28 43.0427L420.883 40.9313ZM458.549 63.935L460.242 65.0006L460.251 64.9857L460.26 64.9706L458.549 63.935ZM464.408 58.355L465.372 60.1074L465.38 60.1034L465.387 60.0993L464.408 58.355ZM505.049 52.31L506.732 53.3915L506.738 53.3822L506.744 53.3728L505.049 52.31ZM511.466 42.08L513.161 43.1428L513.162 43.14L511.466 42.08ZM502.817 42.08L501.121 41.02L501.12 41.0225L502.817 42.08ZM499.283 47.753L497.586 46.6955L497.575 46.7127L497.565 46.73L499.283 47.753ZM468.593 47.753L466.897 46.693L466.886 46.7114L466.875 46.73L468.593 47.753ZM469.988 45.521L471.684 46.581L471.695 46.5634L471.706 46.5456L469.988 45.521ZM478.823 37.058L477.85 35.311L477.85 35.311L478.823 37.058ZM539.738 38.174L537.965 39.0991L537.977 39.1224L537.99 39.1453L539.738 38.174ZM537.599 49.334L535.915 48.2559L535.908 48.2668L535.901 48.2778L537.599 49.334ZM519.092 79.094L520.775 80.1755L520.783 80.1629L520.791 80.1502L519.092 79.094ZM452.225 79.838L450.458 80.7738L450.458 80.7738L452.225 79.838ZM453.806 71.468L452.114 70.4024L452.11 70.408L453.806 71.468ZM482.45 74.816L484.146 75.876L484.153 75.865L482.45 74.816ZM491.099 74.816L489.403 73.756L489.403 73.756L491.099 74.816ZM497.609 64.4L495.913 63.34L495.913 63.34L497.609 64.4ZM488.867 64.4L487.171 63.34L487.165 63.351L488.867 64.4ZM460.26 64.9706C461.499 62.9236 463.191 61.3071 465.372 60.1074L463.444 56.6026C460.666 58.1309 458.451 60.2344 456.838 62.8994L460.26 64.9706ZM465.387 60.0993C467.651 58.8291 469.951 58.216 472.313 58.216V54.216C469.219 54.216 466.25 55.0289 463.43 56.6107L465.387 60.0993ZM472.313 58.216H498.167V54.216H472.313V58.216ZM498.167 58.216C501.811 58.216 504.717 56.5252 506.732 53.3915L503.367 51.2285C502.033 53.3028 500.351 54.216 498.167 54.216V58.216ZM506.744 53.3728L513.161 43.1428L509.772 41.0172L503.355 51.2472L506.744 53.3728ZM513.162 43.14C513.612 42.4198 513.983 41.6611 514.156 40.8915C514.333 40.1036 514.33 39.1655 513.828 38.2931C513.33 37.4276 512.528 36.9509 511.772 36.6967C511.027 36.4463 510.186 36.36 509.327 36.36V40.36C509.957 40.36 510.32 40.4287 510.498 40.4883C510.664 40.5441 510.501 40.5324 510.36 40.2869C510.215 40.0345 510.285 39.8714 510.253 40.0135C510.217 40.1739 510.095 40.5002 509.77 41.02L513.162 43.14ZM509.327 36.36C505.808 36.36 503.015 37.9894 501.121 41.02L504.513 43.14C505.719 41.2106 507.266 40.36 509.327 40.36V36.36ZM501.12 41.0225L497.586 46.6955L500.981 48.8105L504.515 43.1375L501.12 41.0225ZM497.565 46.73C496.376 48.7263 494.736 49.659 492.401 49.659V53.659C496.142 53.659 499.09 51.9877 501.002 48.776L497.565 46.73ZM492.401 49.659H470.639V53.659H492.401V49.659ZM470.639 49.659C470.034 49.659 469.701 49.588 469.553 49.5343C469.428 49.489 469.59 49.5172 469.714 49.7545C469.831 49.9771 469.759 50.0896 469.802 49.8957C469.847 49.6927 469.983 49.3283 470.312 48.776L466.875 46.73C466.428 47.4797 466.069 48.2545 465.897 49.028C465.723 49.8107 465.713 50.7369 466.171 51.6105C466.636 52.4988 467.418 53.0152 468.191 53.2954C468.942 53.5673 469.787 53.659 470.639 53.659V49.659ZM470.289 48.813L471.684 46.581L468.292 44.461L466.897 46.693L470.289 48.813ZM471.706 46.5456C473.624 43.3296 476.306 40.751 479.797 38.805L477.85 35.311C473.777 37.581 470.568 40.6444 468.271 44.4964L471.706 46.5456ZM479.797 38.805C483.304 36.8502 486.877 35.896 490.541 35.896V31.896C486.145 31.896 481.906 33.0498 477.85 35.311L479.797 38.805ZM490.541 35.896H529.415V31.896H490.541V35.896ZM529.415 35.896C534.596 35.896 537.013 37.274 537.965 39.0991L541.512 37.2489C539.488 33.37 535.023 31.896 529.415 31.896V35.896ZM537.99 39.1453C538.977 40.9213 538.793 43.7583 535.915 48.2559L539.284 50.4121C542.357 45.6097 543.6 41.0067 541.487 37.2027L537.99 39.1453ZM535.901 48.2778L517.394 78.0378L520.791 80.1502L539.298 50.3902L535.901 48.2778ZM517.41 78.0125C516.076 80.0868 514.394 81 512.21 81V85C515.854 85 518.76 83.3092 520.775 80.1755L517.41 78.0125ZM512.21 81H459.944V85H512.21V81ZM459.944 81C456.12 81 454.568 79.9893 453.993 78.9022L450.458 80.7738C452.114 83.9027 455.709 85 459.944 85V81ZM453.993 78.9022C453.399 77.7798 453.433 75.8387 455.502 72.528L452.11 70.408C449.84 74.0413 448.82 77.6802 450.458 80.7738L453.993 78.9022ZM455.499 72.5336L460.242 65.0006L456.857 62.8694L452.114 70.4024L455.499 72.5336ZM480.754 73.756C480.305 74.4743 479.936 75.2276 479.759 75.989C479.578 76.7646 479.566 77.6955 480.047 78.5698C480.529 79.4457 481.323 79.934 482.077 80.1942C482.817 80.4493 483.651 80.536 484.496 80.536V76.536C483.885 76.536 483.541 76.4677 483.381 76.4128C483.237 76.363 483.411 76.3863 483.552 76.6422C483.692 76.8965 483.618 77.0524 483.654 76.898C483.693 76.7294 483.82 76.3977 484.146 75.876L480.754 73.756ZM484.496 80.536C488.059 80.536 490.891 78.9227 492.795 75.876L489.403 73.756C488.207 75.6693 486.638 76.536 484.496 76.536V80.536ZM492.795 75.876L499.305 65.46L495.913 63.34L489.403 73.756L492.795 75.876ZM499.305 65.46C499.754 64.7417 500.123 63.9884 500.301 63.227C500.482 62.4514 500.494 61.5205 500.013 60.6462C499.531 59.7703 498.737 59.282 497.982 59.0218C497.243 58.7667 496.409 58.68 495.563 58.68V62.68C496.175 62.68 496.519 62.7483 496.678 62.8032C496.823 62.853 496.649 62.8297 496.508 62.5738C496.368 62.3195 496.442 62.1636 496.406 62.318C496.366 62.4866 496.239 62.8183 495.913 63.34L499.305 65.46ZM495.563 58.68C491.957 58.68 489.085 60.2778 487.171 63.34L490.563 65.46C491.749 63.5622 493.342 62.68 495.563 62.68V58.68ZM487.165 63.351L480.748 73.767L484.153 75.865L490.57 65.449L487.165 63.351Z" fill="#676767"/>
</g>
<g filter="url(#filter1_d_102_11)">
<path d="M369.768 116.896C372.682 116.896 373.736 118.353 372.93 121.267L371.07 128.149C370.636 129.575 371.194 130.288 372.744 130.288C374.294 130.288 375.503 129.699 376.371 128.521L383.067 120.43C384.989 118.074 387.5 116.896 390.6 116.896H415.338C418.19 116.896 418.438 117.826 416.082 119.686L391.065 138.751C388.709 140.549 387.624 142.967 387.81 146.005L389.484 161.629C389.794 164.543 388.461 166 385.485 166H361.77C358.794 166 357.709 164.543 358.515 161.629L360.468 154.747C360.778 153.321 360.22 152.608 358.794 152.608C357.182 152.608 355.942 153.197 355.074 154.375L348.378 162.466C346.456 164.822 343.976 166 340.938 166H313.131C310.279 166 310 165.101 312.294 163.303L338.892 144.238C341.434 142.44 342.612 140.053 342.426 137.077L341.31 121.36C341.124 118.384 342.55 116.896 345.588 116.896H369.768ZM434.734 102.295C436.222 99.939 438.206 98.079 440.686 96.715C443.166 95.289 445.77 94.576 448.498 94.576H492.766C498.16 94.576 501.601 96.002 503.089 98.854C504.577 101.644 503.864 105.364 500.95 110.014L471.004 158.281C469.516 160.637 467.532 162.528 465.052 163.954C462.572 165.318 459.968 166 457.24 166H412.972C407.578 166 404.137 164.605 402.649 161.815C401.161 158.963 401.874 155.212 404.788 150.562L434.734 102.295ZM431.479 157.909C429.929 160.327 430.58 161.536 433.432 161.536C436.284 161.536 438.485 160.327 440.035 157.909L474.352 102.667C475.84 100.249 475.189 99.04 472.399 99.04C469.485 99.04 467.284 100.249 465.796 102.667L431.479 157.909Z" fill="#FFA5B9"/>
<path d="M372.93 121.267L371.003 120.734L370.999 120.745L372.93 121.267ZM371.07 128.149L372.984 128.731L372.993 128.701L373.001 128.671L371.07 128.149ZM376.371 128.521L374.83 127.246L374.794 127.289L374.761 127.335L376.371 128.521ZM383.067 120.43L384.608 121.705L384.617 121.694L383.067 120.43ZM416.082 119.686L417.294 121.277L417.308 121.266L417.321 121.256L416.082 119.686ZM391.065 138.751L389.853 137.16L389.852 137.161L391.065 138.751ZM387.81 146.005L385.814 146.127L385.817 146.173L385.822 146.218L387.81 146.005ZM389.484 161.629L391.473 161.417L391.473 161.416L389.484 161.629ZM358.515 161.629L356.591 161.083L356.588 161.096L358.515 161.629ZM360.468 154.747L362.392 155.293L362.409 155.233L362.423 155.172L360.468 154.747ZM355.074 154.375L356.615 155.65L356.651 155.607L356.684 155.561L355.074 154.375ZM348.378 162.466L346.837 161.191L346.828 161.202L348.378 162.466ZM312.294 163.303L311.129 161.677L311.094 161.702L311.06 161.729L312.294 163.303ZM338.892 144.238L337.737 142.605L337.727 142.612L338.892 144.238ZM342.426 137.077L344.422 136.952L344.422 136.944L344.421 136.935L342.426 137.077ZM341.31 121.36L339.314 121.485L339.315 121.493L339.315 121.502L341.31 121.36ZM369.768 118.896C370.344 118.896 370.707 118.97 370.916 119.047C371.015 119.083 371.069 119.116 371.094 119.134C371.117 119.151 371.123 119.16 371.124 119.161C371.125 119.163 371.136 119.178 371.149 119.219C371.163 119.262 371.182 119.342 371.189 119.468C371.204 119.731 371.166 120.141 371.003 120.734L374.858 121.8C375.315 120.147 375.431 118.291 374.365 116.817C373.276 115.311 371.465 114.896 369.768 114.896V118.896ZM370.999 120.745L369.139 127.627L373.001 128.671L374.861 121.789L370.999 120.745ZM369.157 127.567C368.874 128.497 368.702 129.854 369.588 130.986C370.448 132.084 371.78 132.288 372.744 132.288V128.288C372.496 128.288 372.402 128.258 372.408 128.26C372.429 128.267 372.588 128.328 372.738 128.521C372.893 128.718 372.924 128.906 372.927 128.969C372.93 129.01 372.919 128.944 372.984 128.731L369.157 127.567ZM372.744 132.288C374.886 132.288 376.711 131.431 377.981 129.707L374.761 127.335C374.295 127.967 373.703 128.288 372.744 128.288V132.288ZM377.912 129.796L384.608 121.705L381.526 119.155L374.83 127.246L377.912 129.796ZM384.617 121.694C386.151 119.814 388.087 118.896 390.6 118.896V114.896C386.913 114.896 383.828 116.334 381.517 119.166L384.617 121.694ZM390.6 118.896H415.338V114.896H390.6V118.896ZM415.338 118.896C415.643 118.896 415.887 118.909 416.076 118.929C416.269 118.949 416.374 118.974 416.414 118.986C416.464 119.001 416.368 118.982 416.222 118.869C416.054 118.738 415.832 118.489 415.731 118.109C415.634 117.745 415.7 117.458 415.744 117.331C415.785 117.214 415.819 117.188 415.765 117.26C415.652 117.409 415.379 117.693 414.843 118.116L417.321 121.256C417.963 120.749 418.543 120.219 418.957 119.671C419.305 119.21 419.908 118.249 419.596 117.078C419.258 115.813 418.153 115.332 417.564 115.155C416.9 114.956 416.122 114.896 415.338 114.896V118.896ZM414.87 118.095L389.853 137.16L392.277 140.342L417.294 121.277L414.87 118.095ZM389.852 137.161C386.949 139.377 385.588 142.445 385.814 146.127L389.806 145.883C389.66 143.489 390.47 141.721 392.279 140.341L389.852 137.161ZM385.822 146.218L387.496 161.842L391.473 161.416L389.799 145.792L385.822 146.218ZM387.495 161.841C387.619 163.007 387.365 163.422 387.241 163.557C387.111 163.7 386.697 164 385.485 164V168C387.25 168 388.99 167.571 390.193 166.257C391.402 164.935 391.659 163.165 391.473 161.417L387.495 161.841ZM385.485 164H361.77V168H385.485V164ZM361.77 164C361.175 164 360.794 163.925 360.568 163.844C360.46 163.806 360.399 163.77 360.369 163.748C360.34 163.728 360.331 163.716 360.329 163.713C360.326 163.709 360.315 163.695 360.302 163.655C360.288 163.614 360.269 163.537 360.261 163.414C360.245 163.157 360.28 162.752 360.443 162.162L356.588 161.096C356.128 162.758 356.021 164.626 357.12 166.102C358.229 167.591 360.053 168 361.77 168V164ZM360.439 162.175L362.392 155.293L358.544 154.201L356.591 161.083L360.439 162.175ZM362.423 155.172C362.628 154.229 362.678 152.959 361.857 151.91C361.023 150.845 359.766 150.608 358.794 150.608V154.608C358.996 154.608 359.055 154.635 359.025 154.624C359.005 154.617 358.958 154.597 358.896 154.555C358.834 154.512 358.767 154.452 358.707 154.375C358.58 154.213 358.555 154.07 358.551 154.042C358.55 154.028 358.56 154.11 358.514 154.322L362.423 155.172ZM358.794 150.608C356.621 150.608 354.751 151.442 353.464 153.189L356.684 155.561C357.133 154.952 357.743 154.608 358.794 154.608V150.608ZM353.533 153.1L346.837 161.191L349.919 163.741L356.615 155.65L353.533 153.1ZM346.828 161.202C345.286 163.093 343.375 164 340.938 164V168C344.578 168 347.626 166.551 349.928 163.73L346.828 161.202ZM340.938 164H313.131V168H340.938V164ZM313.131 164C312.824 164 312.578 163.988 312.385 163.968C312.188 163.948 312.075 163.923 312.027 163.909C311.969 163.892 312.052 163.906 312.189 164.006C312.344 164.12 312.575 164.354 312.693 164.733C312.809 165.105 312.751 165.412 312.701 165.563C312.657 165.699 312.613 165.741 312.658 165.68C312.755 165.551 313.008 165.285 313.528 164.877L311.06 161.729C310.433 162.22 309.861 162.741 309.454 163.286C309.11 163.746 308.505 164.732 308.873 165.919C309.254 167.146 310.355 167.591 310.923 167.754C311.579 167.942 312.349 168 313.131 168V164ZM313.459 164.929L340.057 145.864L337.727 142.612L311.129 161.677L313.459 164.929ZM340.047 145.871C343.125 143.694 344.654 140.657 344.422 136.952L340.43 137.202C340.571 139.449 339.744 141.186 337.737 142.605L340.047 145.871ZM344.421 136.935L343.305 121.218L339.315 121.502L340.431 137.219L344.421 136.935ZM343.306 121.235C343.232 120.052 343.504 119.584 343.684 119.396C343.872 119.2 344.355 118.896 345.588 118.896V114.896C343.783 114.896 342.034 115.336 340.796 116.628C339.55 117.928 339.202 119.692 339.314 121.485L343.306 121.235ZM345.588 118.896H369.768V114.896H345.588V118.896ZM434.734 102.295L433.044 101.227L433.039 101.234L433.035 101.241L434.734 102.295ZM440.686 96.715L441.65 98.4674L441.667 98.4583L441.683 98.4488L440.686 96.715ZM503.089 98.854L501.316 99.7791L501.321 99.7872L501.325 99.7952L503.089 98.854ZM500.95 110.014L499.256 108.952L499.251 108.96L500.95 110.014ZM471.004 158.281L472.695 159.349L472.7 159.342L472.704 159.335L471.004 158.281ZM465.052 163.954L466.016 165.706L466.033 165.697L466.049 165.688L465.052 163.954ZM402.649 161.815L400.876 162.74L400.881 162.748L400.885 162.756L402.649 161.815ZM404.788 150.562L406.483 151.624L406.488 151.616L404.788 150.562ZM431.479 157.909L433.163 158.988L433.171 158.976L433.178 158.964L431.479 157.909ZM440.035 157.909L441.719 158.988L441.727 158.976L441.734 158.964L440.035 157.909ZM474.352 102.667L476.051 103.722L476.056 103.715L474.352 102.667ZM465.796 102.667L467.495 103.722L467.5 103.715L465.796 102.667ZM436.425 103.363C437.73 101.298 439.462 99.6711 441.65 98.4674L439.723 94.9626C436.951 96.4869 434.715 98.5804 433.044 101.227L436.425 103.363ZM441.683 98.4488C443.875 97.1884 446.138 96.576 448.498 96.576V92.576C445.403 92.576 442.457 93.3896 439.69 94.9812L441.683 98.4488ZM448.498 96.576H492.766V92.576H448.498V96.576ZM492.766 96.576C497.947 96.576 500.364 97.954 501.316 99.7791L504.863 97.9289C502.839 94.05 498.374 92.576 492.766 92.576V96.576ZM501.325 99.7952C502.282 101.591 502.075 104.454 499.256 108.952L502.645 111.076C505.654 106.274 506.873 101.697 504.854 97.9128L501.325 99.7952ZM499.251 108.96L469.305 157.227L472.704 159.335L502.65 111.068L499.251 108.96ZM469.314 157.213C468.004 159.286 466.261 160.952 464.056 162.22L466.049 165.688C468.804 164.104 471.029 161.988 472.695 159.349L469.314 157.213ZM464.089 162.202C461.892 163.409 459.619 164 457.24 164V168C460.318 168 463.253 167.227 466.016 165.706L464.089 162.202ZM457.24 164H412.972V168H457.24V164ZM412.972 164C407.774 164 405.358 162.643 404.414 160.874L400.885 162.756C402.917 166.567 407.383 168 412.972 168V164ZM404.423 160.89C403.446 159.018 403.674 156.107 406.483 151.624L403.094 149.5C400.075 154.317 398.877 158.908 400.876 162.74L404.423 160.89ZM406.488 151.616L436.434 103.349L433.035 101.241L403.089 149.508L406.488 151.616ZM429.796 156.83C429.347 157.53 428.974 158.267 428.788 159.015C428.6 159.774 428.572 160.701 429.044 161.577C429.518 162.457 430.31 162.943 431.054 163.2C431.783 163.452 432.604 163.536 433.432 163.536V159.536C433.144 159.536 432.911 159.521 432.727 159.496C432.54 159.472 432.423 159.441 432.359 159.419C432.227 159.373 432.418 159.406 432.566 159.681C432.713 159.953 432.635 160.124 432.671 159.977C432.688 159.906 432.728 159.787 432.81 159.614C432.891 159.442 433.006 159.234 433.163 158.988L429.796 156.83ZM433.432 163.536C436.972 163.536 439.805 161.975 441.719 158.988L438.352 156.83C437.166 158.679 435.597 159.536 433.432 159.536V163.536ZM441.734 158.964L476.051 103.722L472.654 101.612L438.337 156.854L441.734 158.964ZM476.056 103.715C476.488 103.012 476.844 102.275 477.016 101.53C477.191 100.773 477.205 99.8602 476.741 98.9985C476.273 98.13 475.497 97.6408 474.754 97.3798C474.029 97.1251 473.216 97.04 472.399 97.04V101.04C472.678 101.04 472.903 101.055 473.08 101.079C473.258 101.103 473.369 101.133 473.428 101.154C473.545 101.195 473.361 101.159 473.219 100.895C473.081 100.638 473.153 100.481 473.119 100.63C473.081 100.792 472.961 101.113 472.649 101.619L476.056 103.715ZM472.399 97.04C468.813 97.04 465.957 98.5905 464.093 101.619L467.5 103.715C468.612 101.907 470.158 101.04 472.399 101.04V97.04ZM464.098 101.612L429.781 156.854L433.178 158.964L467.495 103.722L464.098 101.612Z" fill="#676767"/>
</g>
<defs>
<filter id="filter0_d_102_11" x="129.625" y="11.576" width="412.439" height="94.28" filterUnits="userSpaceOnUse" color-interpolation-filters="sRGB">
<feFlood flood-opacity="0" result="BackgroundImageFix"/>
<feColorMatrix in="SourceAlpha" type="matrix" values="0 0 0 0 0 0 0 0 0 0 0 0 0 0 0 0 0 0 127 0" result="hardAlpha"/>
<feOffset dx="-7" dy="5"/>
<feComposite in2="hardAlpha" operator="out"/>
<feColorMatrix type="matrix" values="0 0 0 0 0.3375 0 0 0 0 0.3375 0 0 0 0 0.3375 0 0 0 1 0"/>
<feBlend mode="normal" in2="BackgroundImageFix" result="effect1_dropShadow_102_11"/>
<feBlend mode="normal" in="SourceGraphic" in2="effect1_dropShadow_102_11" result="shape"/>
</filter>
<filter id="filter1_d_102_11" x="301.853" y="94.576" width="203.468" height="76.424" filterUnits="userSpaceOnUse" color-interpolation-filters="sRGB">
<feFlood flood-opacity="0" result="BackgroundImageFix"/>
<feColorMatrix in="SourceAlpha" type="matrix" values="0 0 0 0 0 0 0 0 0 0 0 0 0 0 0 0 0 0 127 0" result="hardAlpha"/>
<feOffset dx="-7" dy="5"/>
<feComposite in2="hardAlpha" operator="out"/>
<feColorMatrix type="matrix" values="0 0 0 0 0.3375 0 0 0 0 0.3375 0 0 0 0 0.3375 0 0 0 1 0"/>
<feBlend mode="normal" in2="BackgroundImageFix" result="effect1_dropShadow_102_11"/>
<feBlend mode="normal" in="SourceGraphic" in2="effect1_dropShadow_102_11" result="shape"/>
</filter>
</defs>
</svg>
